<svg xmlns="http://www.w3.org/2000/svg" viewBox="0 0 100 100">
  <!-- Outer circle -->
  <circle cx="50" cy="50" r="47" fill="none" stroke="#2a7a7a" stroke-width="3"/>
  
  <!-- White background -->
  <circle cx="50" cy="50" r="45" fill="white"/>
  
  <!-- Radiating lines with dots -->
  <!-- Teal lines -->
  <line x1="50" y1="50" x2="50" y2="12" stroke="#2a7a7a" stroke-width="2.5" stroke-linecap="round"/>
  <circle cx="50" cy="10" r="4" fill="#2a7a7a"/>
  
  <line x1="50" y1="50" x2="50" y2="88" stroke="#2a7a7a" stroke-width="2.5" stroke-linecap="round"/>
  <circle cx="50" cy="90" r="4" fill="#2a7a7a"/>
  
  <line x1="50" y1="50" x2="12" y2="50" stroke="#2a7a7a" stroke-width="2.5" stroke-linecap="round"/>
  <circle cx="10" cy="50" r="4" fill="#2a7a7a"/>
  
  <line x1="50" y1="50" x2="88" y2="50" stroke="#2a7a7a" stroke-width="2.5" stroke-linecap="round"/>
  <circle cx="90" cy="50" r="4" fill="#2a7a7a"/>
  
  <!-- Blue lines -->
  <line x1="50" y1="50" x2="25" y2="18" stroke="#3b82f6" stroke-width="2.5" stroke-linecap="round"/>
  <circle cx="23" cy="16" r="4" fill="#3b82f6"/>
  
  <line x1="50" y1="50" x2="75" y2="82" stroke="#3b82f6" stroke-width="2.5" stroke-linecap="round"/>
  <circle cx="77" cy="84" r="4" fill="#3b82f6"/>
  
  <line x1="50" y1="50" x2="18" y2="75" stroke="#60a5fa" stroke-width="2" stroke-linecap="round"/>
  <circle cx="16" cy="77" r="3" fill="#60a5fa"/>
  
  <!-- Green lines -->
  <line x1="50" y1="50" x2="75" y2="18" stroke="#22c55e" stroke-width="2.5" stroke-linecap="round"/>
  <circle cx="77" cy="16" r="4" fill="#22c55e"/>
  
  <line x1="50" y1="50" x2="25" y2="82" stroke="#22c55e" stroke-width="2.5" stroke-linecap="round"/>
  <circle cx="23" cy="84" r="4" fill="#22c55e"/>
  
  <line x1="50" y1="50" x2="15" y2="35" stroke="#4ade80" stroke-width="2" stroke-linecap="round"/>
  <circle cx="13" cy="33" r="3" fill="#4ade80"/>
  
  <!-- Orange/Red lines -->
  <line x1="50" y1="50" x2="85" y2="35" stroke="#f97316" stroke-width="2.5" stroke-linecap="round"/>
  <circle cx="87" cy="33" r="4" fill="#f97316"/>
  
  <line x1="50" y1="50" x2="15" y2="65" stroke="#ef4444" stroke-width="2.5" stroke-linecap="round"/>
  <circle cx="13" cy="67" r="4" fill="#ef4444"/>
  
  <line x1="50" y1="50" x2="85" y2="65" stroke="#dc2626" stroke-width="2" stroke-linecap="round"/>
  <circle cx="87" cy="67" r="3" fill="#dc2626"/>
  
  <!-- Yellow/Gold lines -->
  <line x1="50" y1="50" x2="35" y2="15" stroke="#eab308" stroke-width="2.5" stroke-linecap="round"/>
  <circle cx="33" cy="13" r="4" fill="#eab308"/>
  
  <line x1="50" y1="50" x2="65" y2="85" stroke="#eab308" stroke-width="2.5" stroke-linecap="round"/>
  <circle cx="67" cy="87" r="4" fill="#eab308"/>
  
  <line x1="50" y1="50" x2="65" y2="15" stroke="#fbbf24" stroke-width="2" stroke-linecap="round"/>
  <circle cx="67" cy="13" r="3" fill="#fbbf24"/>
  
  <!-- Additional accent lines -->
  <line x1="50" y1="50" x2="35" y2="85" stroke="#14b8a6" stroke-width="2" stroke-linecap="round"/>
  <circle cx="33" cy="87" r="3" fill="#14b8a6"/>
  
  <line x1="50" y1="50" x2="82" y2="25" stroke="#06b6d4" stroke-width="2" stroke-linecap="round"/>
  <circle cx="84" cy="23" r="3" fill="#06b6d4"/>
  
  <line x1="50" y1="50" x2="18" y2="25" stroke="#8b5cf6" stroke-width="2" stroke-linecap="round"/>
  <circle cx="16" cy="23" r="3" fill="#8b5cf6"/>
  
  <line x1="50" y1="50" x2="82" y2="75" stroke="#a855f7" stroke-width="2" stroke-linecap="round"/>
  <circle cx="84" cy="77" r="3" fill="#a855f7"/>
  
  <!-- Center glow -->
  <circle cx="50" cy="50" r="6" fill="white"/>
  <circle cx="50" cy="50" r="3" fill="#f8fafc"/>
</svg>

